<?xml version="1.0" encoding="UTF-8" standalone="no"?>
<svg
   xmlns:dc="http://purl.org/dc/elements/1.1/"
   xmlns:cc="http://creativecommons.org/ns#"
   xmlns:rdf="http://www.w3.org/1999/02/22-rdf-syntax-ns#"
   xmlns:svg="http://www.w3.org/2000/svg"
   xmlns="http://www.w3.org/2000/svg"
   xmlns:sodipodi="http://sodipodi.sourceforge.net/DTD/sodipodi-0.dtd"
   xmlns:inkscape="http://www.inkscape.org/namespaces/inkscape"
   viewBox="0 0 300 137.901"
   version="1.1"
   id="svg892"
   sodipodi:docname="la2logo.svg"
   inkscape:version="0.92.3 (2405546, 2018-03-11)">
  <metadata
     id="metadata896">
    <rdf:RDF>
      <cc:Work
         rdf:about="">
        <dc:format>image/svg+xml</dc:format>
        <dc:type
           rdf:resource="http://purl.org/dc/dcmitype/StillImage" />
      </cc:Work>
    </rdf:RDF>
  </metadata>
  <sodipodi:namedview
     pagecolor="#ffffff"
     bordercolor="#666666"
     borderopacity="1"
     objecttolerance="10"
     gridtolerance="10"
     guidetolerance="10"
     inkscape:pageopacity="0"
     inkscape:pageshadow="2"
     inkscape:window-width="1366"
     inkscape:window-height="705"
     id="namedview894"
     showgrid="false"
     inkscape:zoom="1.4142136"
     inkscape:cx="47.541695"
     inkscape:cy="37.040281"
     inkscape:window-x="-8"
     inkscape:window-y="-8"
     inkscape:window-maximized="1"
     inkscape:current-layer="svg892" />
  <defs
     id="defs866">
    <style
       id="style864">.a{fill:#faa620;}</style>
  </defs>
  <g
     id="g1480"
     transform="matrix(0.26373367,0,0,0.26373367,-35.408519,16.944867)">
    <path
       style="fill:#c127a1"
       d="m 893.50468,452.47364 c -9.65226,-1.78499 -16.1613,-4.23203 -22.98018,-8.63929 -14.29899,-9.24188 -23.40389,-22.73302 -28.63814,-42.43441 -2.70489,-10.18106 -2.53807,-39.77166 0.28471,-50.5 1.08535,-4.125 28.89348,-86.00651 61.79585,-181.95891 54.45547,-158.807183 59.66523,-174.552311 58.06968,-175.5 -6.82928,-4.056301 -9.58143,-6.89624 -12.57406,-12.975128 -2.92043,-5.932228 -3.18122,-7.198031 -2.74243,-13.310803 0.29056,-4.047879 1.32974,-8.409635 2.59293,-10.883374 2.91061,-5.699936 9.93186,-11.620037 15.56976,-13.127947 6.70813,-1.794151 162.5356,-1.794151 169.2438,0 5.6379,1.50791 12.6591,7.428011 15.5697,13.127947 1.2632,2.473739 2.3024,6.835495 2.5929,10.883374 0.4388,6.112772 0.1781,7.378575 -2.7424,13.310803 -2.9927,6.079043 -5.7446,8.918644 -12.5746,12.975506 -1.5964,0.948184 3.6051,16.66788 58.0714,175.500002 32.9037,95.95219 60.7081,177.83353 61.7876,181.95853 2.8128,10.74812 2.988,39.22632 0.3075,50 -5.6785,22.82333 -20.1015,40.6862 -38.8183,48.0762 -12.6097,4.97873 -10.8497,4.92887 -169.8157,4.81031 -110.95626,-0.0828 -150.14335,-0.41466 -155.00002,-1.31281 z m 312.00002,-15.93863 c 19.5024,-6.58867 31.7886,-20.53863 36.4028,-41.33248 1.8359,-8.27307 2.1138,-26.01836 0.5462,-34.86893 -1.4286,-8.06546 1.925,1.91396 -64.6669,-192.43366 -64.5414,-188.363431 -61.6311,-178.806273 -56.2078,-184.579085 1.2682,-1.350004 4.047,-2.9762 6.175,-3.613768 7.6489,-2.291665 10.8521,-9.842695 7.1843,-16.935587 -3.1114,-6.016686 -0.9998,-5.871562 -85.4336,-5.871562 -84.43386,0 -82.32225,-0.145124 -85.4336,5.871562 -3.66788,7.092892 -0.46466,14.643922 7.18424,16.935587 2.12801,0.637568 4.90678,2.263764 6.17505,3.613768 5.42702,5.7768 8.4381,-4.085644 -57.41064,188.041715 -33.35819,97.32944 -61.34186,179.45444 -62.18593,182.5 -2.45354,8.85276 -2.92839,31.2153 -0.86376,40.67807 5.34451,24.49546 21.86167,40.51319 45.03462,43.67291 1.65,0.22498 69.375,0.35742 150.50002,0.29431 140.9361,-0.10964 147.7447,-0.19743 153,-1.97285 z M 900.84851,421.86828 c -14.75246,-2.95326 -24.12092,-12.44072 -27.83331,-28.18686 -1.96362,-8.32872 -1.93413,-26.07729 0.0575,-34.58407 0.8624,-3.68358 9.98202,-31.22241 20.26583,-61.19741 l 18.69785,-54.5 h 137.45172 137.4517 l 18.7181,54.5 c 10.295,29.975 19.4221,57.51383 20.2825,61.19741 2.0038,8.57901 2.0156,26.26282 0.023,34.71596 -3.0412,12.90194 -10.2197,21.84157 -21.0399,26.20162 l -5.9189,2.38501 -147,0.15018 c -80.84999,0.0826 -148.87026,-0.22423 -151.15616,-0.68184 z M 1008.7273,232.23902 c -10.63191,-5.24039 -12.97598,-19.51905 -4.5823,-27.91273 7.6541,-7.6541 19.9065,-6.36466 26.7029,2.81021 3.1494,4.25139 3.3591,13.19685 0.4278,18.24306 -4.3793,7.53873 -14.762,10.69729 -22.5484,6.85946 z m 143.2774,-7.56061 c -13.2881,-4.71124 -17.4118,-19.97571 -8.2236,-30.44056 3.8883,-4.42846 8.1788,-6.33791 14.2411,-6.33791 10.3812,0 18.4825,8.10555 18.4825,18.49228 0,6.04764 -1.9109,10.3443 -6.3237,14.21879 -5.4482,4.78358 -12.0129,6.2526 -18.1763,4.0674 z m -62.5,-2.38162 c -11.8699,-3.17581 -20.7627,-10.72744 -26.3743,-22.39685 -2.891,-6.01196 -3.1257,-7.28995 -3.1257,-17.02103 0,-9.81173 0.2154,-10.95853 3.1948,-17.01059 4.0682,-8.26363 11.015,-15.20862 19.2788,-19.27358 6.1149,-3.00792 7.1405,-3.1948 17.5343,-3.1948 10.4284,0 11.4038,0.17942 17.6208,3.24128 29.8403,14.69635 30.0718,58.08436 0.3874,72.61939 -9.5237,4.6633 -18.7593,5.64663 -28.5161,3.03618 z m -110.92092,-34.9809 c -14.89984,-5.41486 -23.07995,-17.18382 -23.07831,-33.20346 6.6e-4,-6.42654 0.48244,-8.73061 2.88953,-13.81868 10.52002,-22.23716 39.60073,-26.76686 56.0806,-8.73529 6.8881,7.53672 9.3485,14.48479 8.7967,24.84148 -0.6973,13.08722 -6.6126,22.47352 -17.9824,28.53407 -5.34628,2.84978 -7.48032,3.39794 -14.28522,3.66939 -5.54102,0.22103 -9.35886,-0.17471 -12.4209,-1.28751 z m 64.66682,-48.4378 c -2.0647,-0.52173 -6.0184,-2.09601 -8.7859,-3.49841 -29.6164,-15.00776 -29.0481,-56.988182 0.9715,-71.766792 5.7222,-2.81705 7.6239,-3.22 16.7988,-3.55964 l 10.3462,-0.38298 2.005,-3.93023 c 3.2435,-6.35772 8.9957,-11.95208 15.4185,-14.995473 5.0378,-2.387145 7.2828,-2.843049 14,-2.843049 6.7171,0 8.9621,0.455904 14,2.843049 6.8078,3.225843 12.7017,9.186693 15.8529,16.032973 1.6407,3.56457 2.1275,6.56761 2.1275,13.1224 0,9.84417 -1.9495,15.19283 -7.9644,21.85057 -5.0808,5.62384 -9.0447,7.87039 -17.5958,9.972342 l -7.2961,1.79347 -2.1419,7.01422 c -5.2183,17.08959 -19.0198,28.10827 -36.233,28.92738 -4.2621,0.20282 -9.4386,-0.0581 -11.5033,-0.57983 z M 1025.3084,30.859388 c -6.0567,-3.198752 -9.1585,-8.168182 -9.6198,-15.411899 -0.7692,-12.079935 6.4961,-19.998633 18.3777,-20.030674 5.358,-0.01445 6.8705,0.414862 10.5095,2.983123 9.917,6.998961 11.2872,21.389344 2.7739,29.133027 -6.1508,5.594749 -15.1693,6.955798 -22.0413,3.326423 z"
       id="path1469"
       inkscape:connector-curvature="0" />
    <path
       style="fill:#74005c"
       d="m 897.16443,452.86333 c -24.97045,-4.24791 -43.06634,-18.94436 -51.37253,-41.72184 -3.87802,-10.63441 -5.40288,-20.52319 -5.35717,-34.74155 0.0284,-8.82176 0.65391,-15.89263 1.94631,-22 1.04749,-4.95 28.95382,-87.91128 62.01408,-184.35841 33.06026,-96.447122 60.10956,-175.538787 60.10956,-175.759245 0,-0.220459 -2.18994,-1.748316 -4.86653,-3.395238 -8.23521,-5.067177 -12.14713,-12.270611 -12.11151,-22.302209 0.0364,-10.251036 5.36825,-19.09784 14.47804,-24.022529 l 4,-2.162371 h 83.50002 83.5 l 4,2.162371 c 9.1098,4.924689 14.4416,13.771493 14.478,24.022529 0.036,10.031598 -3.8763,17.235032 -12.1115,22.302209 -2.6766,1.646922 -4.8665,3.174779 -4.8665,3.395238 0,0.220458 27.0493,79.312123 60.1095,175.759245 33.0603,96.44713 60.9647,179.40841 62.0099,184.35841 2.4691,11.694 2.6368,31.92297 0.3564,42.96357 -3.5077,16.98166 -9.6256,28.66871 -20.2391,38.6627 -7.735,7.28343 -15.4851,11.72544 -26.2438,15.0417 l -7.4929,2.3096 -150.5,0.15461 c -82.77502,0.085 -152.67813,-0.21592 -155.34027,-0.66879 z m 305.84027,-14.8719 c 19.3849,-5.03747 33.4035,-19.27229 38.99,-39.59149 2.5201,-9.1659 3.079,-28.21694 1.1312,-38.55297 -1.0096,-5.35713 -24.4044,-75.04317 -62.6114,-186.5 -40.9624,-119.495052 -61.0012,-179.269982 -61.0047,-181.974526 -0.01,-5.388366 2.1205,-8.11103 8.5642,-10.960724 10.7759,-4.765651 12.68,-16.04847 3.7318,-22.113282 -2.6931,-1.825257 -5.8682,-1.8985 -82.3011,-1.8985 -76.43295,0 -79.60809,0.07324 -82.30113,1.8985 -8.94824,6.064812 -7.04415,17.347631 3.73183,22.113282 6.44247,2.849166 8.57004,5.571199 8.56702,10.960724 -0.002,2.710474 -19.95866,62.234814 -61.02963,182.027496 -43.42094,126.6469 -61.48385,180.5965 -62.60962,187 -1.8935,10.77041 -1.37202,28.90295 1.09075,37.92701 6.24201,22.87189 22.00745,37.13835 44.67462,40.42694 3.72526,0.54047 66.65995,0.84437 151.37616,0.73097 115.2017,-0.15421 146.0275,-0.46112 150,-1.49343 z M 1011.1885,231.48376 c -4.8359,-1.76605 -7.5959,-4.22404 -9.3218,-8.3017 -3.21827,-7.60353 -0.2245,-16.78113 6.6116,-20.26866 11.0755,-5.6503 23.4604,1.35374 23.4507,13.26204 -0.01,11.53256 -10.2939,19.12338 -20.7405,15.30832 z m 138.4958,-9.20936 c -5.4017,-2.75332 -8.5028,-7.69494 -8.9815,-14.31189 -0.2818,-3.89588 0.073,-6.67757 1.104,-8.65223 5.6992,-10.91713 19.8802,-13.42798 28.2979,-5.01034 7.6206,7.62058 6.2987,20.1761 -2.8366,26.94327 -3.7467,2.77549 -13.087,3.32325 -17.5838,1.03119 z m -108.8936,-85.7689 c -27.4008,-8.92959 -35.8749,-43.648282 -15.6018,-63.921352 8.1021,-8.10207 21.2712,-12.81774 31.5081,-11.28262 l 4.5672,0.68489 0.4187,8.70676 c 0.3484,7.24601 0.9075,9.60406 3.3327,14.05511 4.1472,7.61168 11.3078,13.7116 18.8421,16.050972 l 6.147,1.90863 -0.1563,4.53018 c -0.339,9.82877 -9.9444,22.28622 -21.1686,27.45397 -6.8744,3.16505 -20.936,4.0794 -27.8891,1.81346 z"
       id="path1467"
       inkscape:connector-curvature="0" />
    <path
       style="fill:#050505"
       d="m 901.00468,453.21905 c -2.2,-0.20506 -4.9,-0.75461 -6,-1.22122 -1.1,-0.46662 -4.7,-1.62693 -8,-2.57849 -22.9292,-6.61163 -38.42219,-24.59084 -44.0185,-51.08234 -2.20546,-10.44006 -2.25916,-31.09731 -0.11041,-42.47051 1.00341,-5.31094 24.43663,-75.11412 62.05301,-184.8443 33.24242,-96.970962 60.21009,-176.911967 59.92816,-177.646673 -0.28194,-0.734705 -1.73745,-1.76281 -3.23449,-2.284679 -3.72476,-1.29846 -9.04182,-6.815036 -11.24669,-11.668708 -2.27257,-5.00271 -2.46666,-15.85251 -0.37321,-20.862841 2.07285,-4.961037 6.74727,-10.033097 12.30815,-13.355164 l 4.69398,-2.804187 h 82.50002 82.5 l 4.694,2.804187 c 5.5608,3.322067 10.2353,8.394127 12.3081,13.355164 2.0935,5.010331 1.8994,15.860131 -0.3732,20.862841 -2.2049,4.853672 -7.5219,10.370248 -11.2467,11.668708 -1.497,0.521869 -2.9527,1.550355 -3.2348,2.285526 -0.2821,0.73517 26.6292,80.507174 59.8029,177.271126 33.1737,96.76396 60.8388,178.36851 61.478,181.34346 3.4134,15.88581 3.1857,37.38832 -0.5434,51.31087 -6.1921,23.11808 -21.9458,40.04739 -42.8849,46.08536 -3.3,0.95158 -6.9,2.24374 -8,2.87145 -1.4716,0.83977 -41.2342,1.16667 -150.5,1.23729 -81.67502,0.0528 -150.30002,-0.0718 -152.50002,-0.27687 z m 302.82802,-14.59758 c 20.1843,-6.01492 32.1167,-18.2213 38.8301,-39.72153 3.2138,-10.29231 3.261,-33.48823 0.092,-45 -1.1357,-4.125 -29.1065,-86.40051 -62.1573,-182.83446 C 1140.5631,54.255438 1120.505,-5.597877 1120.505,-8.25026 c 0,-5.687481 1.463,-7.722361 7.4581,-10.373721 5.9979,-2.652552 9.2018,-6.146207 10.1187,-11.034043 0.8516,-4.539136 -2.0896,-10.314388 -6.5768,-12.914202 -3.435,-1.990169 -4.9581,-2.027836 -82,-2.027836 -77.0419,0 -78.56503,0.03767 -82.00002,2.027836 -4.48722,2.599814 -7.4284,8.375066 -6.57685,12.914202 0.91696,4.887836 4.12079,8.381491 10.11868,11.034043 5.99906,2.653068 7.45817,4.68567 7.45817,10.389539 0,2.673146 -20.05375,62.52329 -60.54347,180.691122 -33.29891,97.18171 -61.28986,179.6751 -62.20212,183.31864 -2.37122,9.47058 -2.31061,33.32212 0.10682,42.03937 6.72597,24.25386 23.44727,39.15722 47.13877,42.01386 3.85,0.46422 71.8,0.77331 151.00002,0.68685 133.5461,-0.14577 144.4231,-0.28327 149.828,-1.89393 z"
       id="path1465"
       inkscape:connector-curvature="0" />
  </g>
  <g
     id="g1492"
     transform="matrix(0.07292021,0.7365077,-0.7365077,0.07292021,307.01108,21.464602)">
    <path
       sodipodi:nodetypes="cssssssssc"
       inkscape:connector-curvature="0"
       id="path1486"
       d="m 115.5357,64.914668 c 8.3448,-5.815461 43.34435,-19.549346 36.00473,-34.330956 -6.60207,-13.296218 -40.81184,12.991142 -43.98109,16.142881 -4.47808,4.453284 -23.58227,-3.478199 -30.417202,-0.08439 -11.062786,5.493049 -21.891801,12.829418 -22.026587,21.062096 -0.231252,14.124962 28.587541,-3.087739 32.313074,-3.443845 2.559221,-0.24469 6.279552,0.03022 6.858662,1.454635 1.234057,3.034305 -3.159571,8.956648 -5.071758,11.159062 C 82.676593,84.405499 65.984622,92.213879 76.156565,97.3352 97.829391,108.24685 115.49387,79.99449 115.5357,64.914668 Z"
       style="fill:none;stroke:#000000;stroke-width:3.19945216px;stroke-linecap:butt;stroke-linejoin:miter;stroke-opacity:1" />
    <path
       inkscape:connector-curvature="0"
       id="path1488"
       d="m 84.322137,97.939495 c -0.364459,-0.08093 -1.482686,-0.313501 -2.484948,-0.51682 -3.739181,-0.758522 -6.957853,-2.65832 -6.957853,-4.106823 0,-1.157018 1.988747,-3.433253 5.491282,-6.285091 6.032056,-4.911426 8.582417,-7.17087 10.176998,-9.016116 3.609042,-4.176375 5.58159,-7.992005 5.607238,-10.846455 0.02916,-3.243731 -1.382366,-4.357239 -5.969063,-4.708846 -2.984581,-0.228794 -3.944939,0.06313 -12.490181,3.796672 -6.835328,2.986456 -10.513662,4.26855 -13.981537,4.873297 -4.775631,0.832799 -6.726359,-0.07421 -6.726359,-3.127502 0,-5.58051 5.727929,-11.460651 17.400088,-17.86247 5.71278,-3.133284 6.341699,-3.180038 18.217493,-1.354287 6.619394,1.017647 11.632805,1.235364 13.761415,0.597615 0.68634,-0.205633 2.47639,-1.393038 3.97788,-2.638678 5.33162,-4.423119 13.54839,-9.864449 19.97195,-13.225882 4.78888,-2.506004 8.11423,-3.805218 11.49053,-4.489344 4.5511,-0.922171 6.73562,-0.183988 8.17762,2.763337 1.745,3.566658 0.48738,6.98928 -4.35785,11.859926 -4.42576,4.448976 -8.85852,7.406209 -21.18936,14.136089 -4.02272,2.195506 -8.09679,4.490296 -9.0535,5.099529 -1.73575,1.105341 -1.73948,1.111421 -1.74521,2.851282 -0.016,4.848789 -2.74964,12.392341 -6.57513,18.144232 -5.67376,8.530898 -12.727827,13.462545 -20.090892,14.045968 -1.093377,0.08664 -2.286152,0.0913 -2.650611,0.01037 z"
       style="fill:#b3b3b3;fill-opacity:1;fill-rule:evenodd;stroke:#4d4d4d;stroke-width:0.99429208;stroke-linecap:round;stroke-linejoin:round;stroke-miterlimit:4;stroke-dasharray:none;stroke-dashoffset:0;stroke-opacity:1;paint-order:fill markers stroke" />
  </g>
  <text
     xml:space="preserve"
     style="font-style:normal;font-variant:normal;font-weight:normal;font-stretch:normal;font-size:28.78251076px;line-height:1.25;font-family:Alfphabet;-inkscape-font-specification:Alfphabet;letter-spacing:0px;word-spacing:0px;fill:#000000;fill-opacity:1;stroke:none;stroke-width:0.89945346"
     x="0.47478664"
     y="53.739246"
     id="text1496"><tspan
       sodipodi:role="line"
       id="tspan1494"
       x="0.47478664"
       y="53.739246"
       style="font-style:normal;font-variant:normal;font-weight:normal;font-stretch:normal;font-family:Alfphabet;-inkscape-font-specification:Alfphabet;stroke-width:0.89945346">Powered</tspan><tspan
       sodipodi:role="line"
       x="0.47478664"
       y="89.717384"
       id="tspan1498"
       style="font-style:normal;font-variant:normal;font-weight:normal;font-stretch:normal;font-family:Alfphabet;-inkscape-font-specification:Alfphabet;stroke-width:0.89945346">ALCHEMOD</tspan></text>
  <text
     xml:space="preserve"
     style="font-style:normal;font-variant:normal;font-weight:normal;font-stretch:normal;font-size:32px;line-height:1.25;font-family:Alfphabet;-inkscape-font-specification:Alfphabet;letter-spacing:0px;word-spacing:0px;fill:#000000;fill-opacity:1;stroke:none;"
     x="175.60297"
     y="17.960869"
     id="text832"><tspan
       sodipodi:role="line"
       id="tspan830"
       x="175.60297"
       y="46.364735" /></text>
  <text
     xml:space="preserve"
     style="font-style:normal;font-variant:normal;font-weight:normal;font-stretch:normal;font-size:32px;line-height:1.25;font-family:Alfphabet;-inkscape-font-specification:Alfphabet;letter-spacing:0px;word-spacing:0px;fill:#000000;fill-opacity:1;stroke:none;"
     x="176.92825"
     y="6.0331197"
     id="text836"><tspan
       sodipodi:role="line"
       id="tspan834"
       x="176.92825"
       y="34.436985" /></text>
  <text
     xml:space="preserve"
     style="font-style:normal;font-variant:normal;font-weight:normal;font-stretch:normal;font-size:20.4712162px;line-height:1.25;font-family:Alfphabet;-inkscape-font-specification:Alfphabet;letter-spacing:0px;word-spacing:0px;fill:#000000;fill-opacity:1;stroke:none;stroke-width:0.63972551"
     x="1.0753355"
     y="68.806587"
     id="text840"><tspan
       sodipodi:role="line"
       id="tspan838"
       x="1.0753355"
       y="68.806587"
       style="stroke-width:0.63972551">by</tspan></text>
</svg>
